<svg width="844" height="140" viewBox="0 0 844 140" fill="none" xmlns="http://www.w3.org/2000/svg">
<path d="M53.937 57.5433C43.0445 57.5433 33.5302 59.2011 25.3937 62.5164C17.3885 65.8317 11.1548 70.5911 6.69292 76.7939C2.23099 83.1039 0 90.4833 0 98.9321C0 107.488 2.23099 114.814 6.69292 120.91C11.1548 127.113 17.3885 131.819 25.3937 135.027C33.5302 138.342 43.0445 140 53.937 140C60.3673 140 66.7981 139.305 73.2284 137.915C79.6587 136.524 84.8425 134.492 88.7796 131.819L79.5276 112.247C76.5091 114.172 72.9658 115.67 68.8977 116.739C64.9607 117.915 61.2205 118.504 57.6772 118.504C50.7217 118.504 45.3414 116.792 41.5354 113.37C37.7295 110.055 35.8268 105.242 35.8268 98.9321C35.8268 92.7292 37.7295 87.863 41.5354 84.3337C45.3414 80.8045 50.7217 79.0398 57.6772 79.0398C61.2205 79.0398 64.9607 79.5747 68.8977 80.644C72.9658 81.8206 76.5091 83.3712 79.5276 85.2963L88.7796 65.7248C84.8425 63.2649 79.6587 61.2866 73.2284 59.7892C66.7981 58.2919 60.3673 57.5433 53.937 57.5433Z" fill="#1D3557"/>
<path d="M96.063 3C106.956 3 116.47 4.65779 124.606 7.97307C132.611 11.2883 138.845 16.0477 143.307 22.2506C147.769 28.5606 150 35.94 150 44.3888C150 52.9447 147.769 60.2705 143.307 66.3665C138.845 72.5694 132.611 77.2752 124.606 80.4836C116.47 83.7989 106.956 85.4567 96.063 85.4567C89.6327 85.4567 83.202 84.7614 76.7716 83.3712C70.3413 81.981 65.1575 79.9488 61.2205 77.2752L70.4724 57.7037C73.4909 59.6288 77.0342 61.1262 81.1024 62.1956C85.0394 63.3721 88.7795 63.9602 92.3228 63.9602C99.2783 63.9602 104.659 62.2491 108.465 58.8267C112.27 55.5114 114.173 50.6988 114.173 44.3888C114.173 38.1859 112.27 33.3197 108.465 29.7904C104.659 26.2611 99.2783 24.4965 92.3228 24.4965C88.7795 24.4965 85.0394 25.0313 81.1024 26.1007C77.0342 27.2772 73.4909 28.8279 70.4724 30.7529L61.2205 11.1815C65.1575 8.72159 70.3413 6.74327 76.7716 5.2459C83.202 3.74852 89.6327 3 96.063 3Z" fill="#1D3557"/>
<path d="M57.2834 20.9849C57.2834 13.6584 64.0173 7.49343 72.9468 6.64416C83.4736 5.64345 92.7165 12.3481 92.7165 20.9849V122.335C92.7165 129.348 86.5315 135.347 78.0539 136.556C67.213 138.103 57.2834 131.304 57.2834 122.335V20.9849Z" fill="#1D3557"/>
<path d="M189.7 97V39.8H214.4C219.533 39.8 223.967 40.6333 227.7 42.3C231.433 43.9 234.3 46.2333 236.3 49.3C238.367 52.3667 239.4 56.0667 239.4 60.4C239.4 64.7333 238.367 68.4667 236.3 71.6C234.3 74.6667 231.433 77.0333 227.7 78.7C223.967 80.3 219.533 81.1 214.4 81.1H196.7L202.3 75.3V97H189.7ZM202.3 76.8L197.7 70.9H213.5C217.9 70.9 221.2 70 223.4 68.2C225.6 66.3333 226.7 63.7333 226.7 60.4C226.7 57.0667 225.6 54.5 223.4 52.7C221.2 50.9 217.9 50 213.5 50H197.7L202.3 44.2V76.8ZM253.591 97V39.8H278.291C283.424 39.8 287.857 40.6333 291.591 42.3C295.324 43.9 298.191 46.2333 300.191 49.3C302.257 52.3667 303.291 56.0667 303.291 60.4C303.291 64.6667 302.257 68.3333 300.191 71.4C298.191 74.4667 295.324 76.8 291.591 78.4C287.857 80 283.424 80.8 278.291 80.8H260.591L266.191 75.3V97H253.591ZM290.791 97L276.091 76.2H289.691L304.391 97H290.791ZM266.191 76.8L261.591 70.9H277.391C281.791 70.9 285.091 70 287.291 68.2C289.491 66.3333 290.591 63.7333 290.591 60.4C290.591 57.0667 289.491 54.5 287.291 52.7C285.091 50.9 281.791 50 277.391 50H261.591L266.191 44.2V76.8ZM345.163 98C339.096 98 333.663 96.7333 328.863 94.2C324.129 91.6 320.396 88.0667 317.663 83.6C314.929 79.1333 313.563 74.0667 313.563 68.4C313.563 62.7333 314.929 57.7 317.663 53.3C320.396 48.8333 324.129 45.3333 328.863 42.8C333.663 40.2 339.063 38.9 345.063 38.9C351.129 38.9 356.529 40.2 361.263 42.8C366.063 45.3333 369.829 48.8333 372.563 53.3C375.296 57.7 376.663 62.7333 376.663 68.4C376.663 74.0667 375.296 79.1333 372.563 83.6C369.829 88.0667 366.063 91.6 361.263 94.2C356.529 96.7333 351.163 98 345.163 98ZM345.063 87.3C348.729 87.3 351.963 86.5 354.763 84.9C357.629 83.2333 359.863 80.9667 361.463 78.1C363.063 75.2333 363.863 72 363.863 68.4C363.863 64.7333 363.029 61.5 361.363 58.7C359.763 55.8333 357.563 53.6 354.763 52C351.963 50.4 348.763 49.6 345.163 49.6C341.563 49.6 338.329 50.4 335.463 52C332.596 53.6 330.329 55.8333 328.663 58.7C327.063 61.5 326.263 64.7333 326.263 68.4C326.263 72 327.063 75.2333 328.663 78.1C330.329 80.9667 332.596 83.2333 335.463 84.9C338.329 86.5 341.529 87.3 345.063 87.3ZM417.459 98.3C411.192 98.3 405.559 97 400.559 94.4C395.559 91.8 391.625 88.2333 388.759 83.7C385.959 79.1 384.559 73.9 384.559 68.1C384.559 62.1667 385.959 56.9333 388.759 52.4C391.625 47.8667 395.559 44.3333 400.559 41.8C405.559 39.2 411.192 37.9 417.459 37.9C423.059 37.9 428.025 38.7667 432.359 40.5C436.692 42.2333 440.392 45.1333 443.459 49.2L431.059 60.1C429.259 57.7667 427.259 56.0667 425.059 55C422.925 53.8667 420.625 53.3 418.159 53.3C415.425 53.3 412.959 53.9 410.759 55.1C408.625 56.3 406.959 58 405.759 60.2C404.559 62.4 403.959 65.0333 403.959 68.1C403.959 71.1 404.559 73.7333 405.759 76C406.959 78.2 408.625 79.9 410.759 81.1C412.959 82.3 415.425 82.9 418.159 82.9C420.625 82.9 422.925 82.3333 425.059 81.2C427.259 80.0667 429.259 78.3667 431.059 76.1L443.459 86.9C440.392 90.9667 436.692 93.9 432.359 95.7C428.025 97.4333 423.059 98.3 417.459 98.3ZM480.768 98.3C474.435 98.3 468.768 97 463.768 94.4C458.768 91.8 454.835 88.2333 451.968 83.7C449.101 79.1 447.668 73.9 447.668 68.1C447.668 62.2333 449.101 57.0333 451.968 52.5C454.835 47.9667 458.768 44.4 463.768 41.8C468.768 39.2 474.435 37.9 480.768 37.9C487.101 37.9 492.768 39.2 497.768 41.8C502.768 44.4 506.701 47.9667 509.568 52.5C512.435 57.0333 513.868 62.2333 513.868 68.1C513.868 73.9 512.435 79.1 509.568 83.7C506.701 88.2333 502.768 91.8 497.768 94.4C492.768 97 487.101 98.3 480.768 98.3ZM480.768 82.9C483.435 82.9 485.768 82.2667 487.768 81C489.835 79.7333 491.435 78 492.568 75.8C493.768 73.5333 494.368 70.9667 494.368 68.1C494.368 65.1667 493.768 62.6 492.568 60.4C491.435 58.2 489.835 56.4667 487.768 55.2C485.768 53.9333 483.435 53.3 480.768 53.3C478.168 53.3 475.835 53.9333 473.768 55.2C471.701 56.4 470.068 58.1333 468.868 60.4C467.668 62.6667 467.068 65.2333 467.068 68.1C467.068 70.9667 467.668 73.5333 468.868 75.8C470.068 78 471.701 79.7333 473.768 81C475.835 82.2667 478.168 82.9 480.768 82.9ZM524.238 97V39.2H540.138L570.238 74.9H563.038V39.2H581.938V97H566.038L535.738 61.3H543.138V97H524.238ZM595.941 97V39.2H611.841L641.941 74.9H634.741V39.2H653.641V97H637.741L607.441 61.3H614.841V97H595.941ZM685.045 61H711.645V74.4H685.045V61ZM686.645 82.8H716.145V97H667.645V39.2H715.045V53.4H686.645V82.8ZM756.345 98.3C750.079 98.3 744.445 97 739.445 94.4C734.445 91.8 730.512 88.2333 727.645 83.7C724.845 79.1 723.445 73.9 723.445 68.1C723.445 62.1667 724.845 56.9333 727.645 52.4C730.512 47.8667 734.445 44.3333 739.445 41.8C744.445 39.2 750.079 37.9 756.345 37.9C761.945 37.9 766.912 38.7667 771.245 40.5C775.579 42.2333 779.279 45.1333 782.345 49.2L769.945 60.1C768.145 57.7667 766.145 56.0667 763.945 55C761.812 53.8667 759.512 53.3 757.045 53.3C754.312 53.3 751.845 53.9 749.645 55.1C747.512 56.3 745.845 58 744.645 60.2C743.445 62.4 742.845 65.0333 742.845 68.1C742.845 71.1 743.445 73.7333 744.645 76C745.845 78.2 747.512 79.9 749.645 81.1C751.845 82.3 754.312 82.9 757.045 82.9C759.512 82.9 761.812 82.3333 763.945 81.2C766.145 80.0667 768.145 78.3667 769.945 76.1L782.345 86.9C779.279 90.9667 775.579 93.9 771.245 95.7C766.912 97.4333 761.945 98.3 756.345 98.3ZM802.72 97V53.8H785.32V39.2H839.42V53.8H822.02V97H802.72Z" fill="#1D3557"/>
</svg>
