<svg width="823" height="122" viewBox="0 0 823 122" fill="none" xmlns="http://www.w3.org/2000/svg">
<path d="M166.5 97V39.2H194.5C199.967 39.2 204.7 40.1 208.7 41.9C212.7 43.6333 215.767 46.1 217.9 49.3C220.1 52.5 221.2 56.3667 221.2 60.9C221.2 65.3667 220.1 69.2333 217.9 72.5C215.767 75.7667 212.7 78.2667 208.7 80C204.7 81.7333 199.967 82.6 194.5 82.6H177.2L185.8 74.5V97H166.5ZM185.8 76.6L178.8 68.2H193.1C196.033 68.2 198.233 67.5667 199.7 66.3C201.167 64.9667 201.9 63.1667 201.9 60.9C201.9 58.7 201.167 56.9667 199.7 55.7C198.233 54.3667 196.033 53.7 193.1 53.7H178.8L185.8 45.3V76.6ZM231.953 97V39.2H259.953C265.42 39.2 270.153 40.1 274.153 41.9C278.153 43.6333 281.22 46.1 283.353 49.3C285.553 52.5 286.653 56.3667 286.653 60.9C286.653 65.3667 285.553 69.2 283.353 72.4C281.22 75.6 278.153 78.0667 274.153 79.8C270.153 81.5333 265.42 82.4 259.953 82.4H242.653L251.253 74.5V97H231.953ZM267.253 97L252.753 76H273.253L287.953 97H267.253ZM251.253 76.6L244.253 68.2H258.553C261.486 68.2 263.686 67.5667 265.153 66.3C266.62 64.9667 267.353 63.1667 267.353 60.9C267.353 58.7 266.62 56.9667 265.153 55.7C263.686 54.3667 261.486 53.7 258.553 53.7H244.253L251.253 45.3V76.6ZM327.788 98.3C321.454 98.3 315.788 97 310.788 94.4C305.788 91.8 301.854 88.2333 298.988 83.7C296.121 79.1 294.688 73.9 294.688 68.1C294.688 62.2333 296.121 57.0333 298.988 52.5C301.854 47.9667 305.788 44.4 310.788 41.8C315.788 39.2 321.454 37.9 327.788 37.9C334.121 37.9 339.788 39.2 344.788 41.8C349.788 44.4 353.721 47.9667 356.588 52.5C359.454 57.0333 360.888 62.2333 360.888 68.1C360.888 73.9 359.454 79.1 356.588 83.7C353.721 88.2333 349.788 91.8 344.788 94.4C339.788 97 334.121 98.3 327.788 98.3ZM327.788 82.9C330.454 82.9 332.788 82.2667 334.788 81C336.854 79.7333 338.454 78 339.588 75.8C340.788 73.5333 341.388 70.9667 341.388 68.1C341.388 65.1667 340.788 62.6 339.588 60.4C338.454 58.2 336.854 56.4667 334.788 55.2C332.788 53.9333 330.454 53.3 327.788 53.3C325.188 53.3 322.854 53.9333 320.788 55.2C318.721 56.4 317.088 58.1333 315.888 60.4C314.688 62.6667 314.088 65.2333 314.088 68.1C314.088 70.9667 314.688 73.5333 315.888 75.8C317.088 78 318.721 79.7333 320.788 81C322.854 82.2667 325.188 82.9 327.788 82.9ZM400.658 98.3C394.391 98.3 388.758 97 383.758 94.4C378.758 91.8 374.824 88.2333 371.958 83.7C369.158 79.1 367.758 73.9 367.758 68.1C367.758 62.1667 369.158 56.9333 371.958 52.4C374.824 47.8667 378.758 44.3333 383.758 41.8C388.758 39.2 394.391 37.9 400.658 37.9C406.258 37.9 411.224 38.7667 415.558 40.5C419.891 42.2333 423.591 45.1333 426.658 49.2L414.258 60.1C412.458 57.7667 410.458 56.0667 408.258 55C406.124 53.8667 403.824 53.3 401.358 53.3C398.624 53.3 396.158 53.9 393.958 55.1C391.824 56.3 390.158 58 388.958 60.2C387.758 62.4 387.158 65.0333 387.158 68.1C387.158 71.1 387.758 73.7333 388.958 76C390.158 78.2 391.824 79.9 393.958 81.1C396.158 82.3 398.624 82.9 401.358 82.9C403.824 82.9 406.124 82.3333 408.258 81.2C410.458 80.0667 412.458 78.3667 414.258 76.1L426.658 86.9C423.591 90.9667 419.891 93.9 415.558 95.7C411.224 97.4333 406.258 98.3 400.658 98.3ZM463.967 98.3C457.634 98.3 451.967 97 446.967 94.4C441.967 91.8 438.034 88.2333 435.167 83.7C432.301 79.1 430.867 73.9 430.867 68.1C430.867 62.2333 432.301 57.0333 435.167 52.5C438.034 47.9667 441.967 44.4 446.967 41.8C451.967 39.2 457.634 37.9 463.967 37.9C470.301 37.9 475.967 39.2 480.967 41.8C485.967 44.4 489.901 47.9667 492.767 52.5C495.634 57.0333 497.067 62.2333 497.067 68.1C497.067 73.9 495.634 79.1 492.767 83.7C489.901 88.2333 485.967 91.8 480.967 94.4C475.967 97 470.301 98.3 463.967 98.3ZM463.967 82.9C466.634 82.9 468.967 82.2667 470.967 81C473.034 79.7333 474.634 78 475.767 75.8C476.967 73.5333 477.567 70.9667 477.567 68.1C477.567 65.1667 476.967 62.6 475.767 60.4C474.634 58.2 473.034 56.4667 470.967 55.2C468.967 53.9333 466.634 53.3 463.967 53.3C461.367 53.3 459.034 53.9333 456.967 55.2C454.901 56.4 453.267 58.1333 452.067 60.4C450.867 62.6667 450.267 65.2333 450.267 68.1C450.267 70.9667 450.867 73.5333 452.067 75.8C453.267 78 454.901 79.7333 456.967 81C459.034 82.2667 461.367 82.9 463.967 82.9ZM507.438 97V39.2H523.338L553.438 74.9H546.238V39.2H565.138V97H549.238L518.938 61.3H526.338V97H507.438ZM579.141 97V39.2H595.041L625.141 74.9H617.941V39.2H636.841V97H620.941L590.641 61.3H598.041V97H579.141ZM668.244 61H694.844V74.4H668.244V61ZM669.844 82.8H699.344V97H650.844V39.2H698.244V53.4H669.844V82.8ZM739.545 98.3C733.278 98.3 727.645 97 722.645 94.4C717.645 91.8 713.711 88.2333 710.845 83.7C708.045 79.1 706.645 73.9 706.645 68.1C706.645 62.1667 708.045 56.9333 710.845 52.4C713.711 47.8667 717.645 44.3333 722.645 41.8C727.645 39.2 733.278 37.9 739.545 37.9C745.145 37.9 750.111 38.7667 754.445 40.5C758.778 42.2333 762.478 45.1333 765.545 49.2L753.145 60.1C751.345 57.7667 749.345 56.0667 747.145 55C745.011 53.8667 742.711 53.3 740.245 53.3C737.511 53.3 735.045 53.9 732.845 55.1C730.711 56.3 729.045 58 727.845 60.2C726.645 62.4 726.045 65.0333 726.045 68.1C726.045 71.1 726.645 73.7333 727.845 76C729.045 78.2 730.711 79.9 732.845 81.1C735.045 82.3 737.511 82.9 740.245 82.9C742.711 82.9 745.011 82.3333 747.145 81.2C749.345 80.0667 751.345 78.3667 753.145 76.1L765.545 86.9C762.478 90.9667 758.778 93.9 754.445 95.7C750.111 97.4333 745.145 98.3 739.545 98.3ZM785.919 97V53.8H768.519V39.2H822.619V53.8H805.219V97H785.919Z" fill="url(#paint0_linear_17_22)"/>
<path d="M46.7454 50.377C37.3052 50.377 29.0595 51.8169 22.0079 54.6966C15.07 57.5763 9.66753 61.7104 5.80053 67.0983C1.93352 72.5792 0 78.9891 0 86.3278C0 93.7596 1.93352 100.123 5.80053 105.418C9.66753 110.806 15.07 114.893 22.0079 117.68C29.0595 120.56 37.3052 122 46.7454 122C52.3184 122 57.8916 121.396 63.4646 120.188C69.0375 118.981 73.5302 117.216 76.9423 114.893L68.9239 97.8933C66.3079 99.5655 63.237 100.866 59.7113 101.795C56.2992 102.817 53.0578 103.328 49.9869 103.328C43.9588 103.328 39.2958 101.842 35.9974 98.8688C32.6989 95.9891 31.0499 91.8087 31.0499 86.3278C31.0499 80.9399 32.6989 76.713 35.9974 73.6474C39.2958 70.5819 43.9588 69.0491 49.9869 69.0491C53.0578 69.0491 56.2992 69.5137 59.7113 70.4425C63.237 71.4645 66.3079 72.8114 68.9239 74.4835L76.9423 57.4835C73.5302 55.3468 69.0375 53.6284 63.4646 52.3278C57.8916 51.0271 52.3184 50.377 46.7454 50.377Z" fill="url(#paint1_linear_17_22)"/>
<path d="M83.2546 3C92.6948 3 100.94 4.43998 107.992 7.31967C114.93 10.1994 120.333 14.3334 124.199 19.7213C128.066 25.2023 130 31.6121 130 38.9508C130 46.3826 128.066 52.7459 124.199 58.041C120.333 63.4289 114.93 67.5164 107.992 70.3033C100.94 73.183 92.6948 74.623 83.2546 74.623C77.6817 74.623 72.1084 74.019 66.5354 72.8115C60.9625 71.6039 56.4698 69.8387 53.0577 67.5164L61.0761 50.5164C63.6922 52.1885 66.763 53.4892 70.2887 54.418C73.7008 55.44 76.9423 55.9508 80.0131 55.9508C86.0412 55.9508 90.7042 54.4646 94.0026 51.4918C97.3011 48.6121 98.9501 44.4318 98.9501 38.9508C98.9501 33.5629 97.3011 29.3361 94.0026 26.2705C90.7042 23.2049 86.0412 21.6721 80.0131 21.6721C76.9423 21.6721 73.7008 22.1367 70.2887 23.0656C66.763 24.0875 63.6922 25.4344 61.0761 27.1066L53.0577 10.1066C56.4698 7.96985 60.9625 6.25146 66.5354 4.95082C72.1084 3.65018 77.6817 3 83.2546 3Z" fill="url(#paint2_linear_17_22)"/>
<path d="M49.6456 18.622C49.6456 12.2581 55.4816 6.90313 63.2206 6.16544C72.3438 5.29621 80.3543 11.12 80.3543 18.622V106.656C80.3543 112.748 74.9939 117.959 67.6467 119.009C58.2512 120.352 49.6456 114.447 49.6456 106.656V18.622Z" fill="url(#paint3_linear_17_22)"/>
<circle cx="65" cy="63" r="4" fill="white"/>
<defs>
<linearGradient id="paint0_linear_17_22" x1="160" y1="61" x2="823" y2="61" gradientUnits="userSpaceOnUse">
<stop offset="0.519231" stop-color="#1D3557"/>
</linearGradient>
<linearGradient id="paint1_linear_17_22" x1="0" y1="86.1884" x2="76.9423" y2="86.1884" gradientUnits="userSpaceOnUse">
<stop offset="0.519231" stop-color="#1D3557"/>
<stop offset="0.826923" stop-color="#3AB9B1" stop-opacity="0.94"/>
</linearGradient>
<linearGradient id="paint2_linear_17_22" x1="53.0577" y1="38.8115" x2="130" y2="38.8115" gradientUnits="userSpaceOnUse">
<stop offset="0.519231" stop-color="#1D3557"/>
<stop offset="0.826923" stop-color="#3AB9B1" stop-opacity="0.94"/>
</linearGradient>
<linearGradient id="paint3_linear_17_22" x1="49.6456" y1="62.6397" x2="80.3543" y2="62.6397" gradientUnits="userSpaceOnUse">
<stop offset="0.519231" stop-color="#1D3557"/>
<stop offset="0.826923" stop-color="#3AB9B1" stop-opacity="0.94"/>
</linearGradient>
</defs>
</svg>
