<svg width="823" height="140" viewBox="0 0 823 140" fill="none" xmlns="http://www.w3.org/2000/svg">
<path d="M168.7 97V39.8H193.4C198.533 39.8 202.967 40.6333 206.7 42.3C210.433 43.9 213.3 46.2333 215.3 49.3C217.367 52.3667 218.4 56.0667 218.4 60.4C218.4 64.7333 217.367 68.4667 215.3 71.6C213.3 74.6667 210.433 77.0333 206.7 78.7C202.967 80.3 198.533 81.1 193.4 81.1H175.7L181.3 75.3V97H168.7ZM181.3 76.8L176.7 70.9H192.5C196.9 70.9 200.2 70 202.4 68.2C204.6 66.3333 205.7 63.7333 205.7 60.4C205.7 57.0667 204.6 54.5 202.4 52.7C200.2 50.9 196.9 50 192.5 50H176.7L181.3 44.2V76.8ZM232.591 97V39.8H257.291C262.424 39.8 266.857 40.6333 270.591 42.3C274.324 43.9 277.191 46.2333 279.191 49.3C281.257 52.3667 282.291 56.0667 282.291 60.4C282.291 64.6667 281.257 68.3333 279.191 71.4C277.191 74.4667 274.324 76.8 270.591 78.4C266.857 80 262.424 80.8 257.291 80.8H239.591L245.191 75.3V97H232.591ZM269.791 97L255.091 76.2H268.691L283.391 97H269.791ZM245.191 76.8L240.591 70.9H256.391C260.791 70.9 264.091 70 266.291 68.2C268.491 66.3333 269.591 63.7333 269.591 60.4C269.591 57.0667 268.491 54.5 266.291 52.7C264.091 50.9 260.791 50 256.391 50H240.591L245.191 44.2V76.8ZM324.163 98C318.096 98 312.663 96.7333 307.863 94.2C303.129 91.6 299.396 88.0667 296.663 83.6C293.929 79.1333 292.563 74.0667 292.563 68.4C292.563 62.7333 293.929 57.7 296.663 53.3C299.396 48.8333 303.129 45.3333 307.863 42.8C312.663 40.2 318.063 38.9 324.063 38.9C330.129 38.9 335.529 40.2 340.263 42.8C345.063 45.3333 348.829 48.8333 351.563 53.3C354.296 57.7 355.663 62.7333 355.663 68.4C355.663 74.0667 354.296 79.1333 351.563 83.6C348.829 88.0667 345.063 91.6 340.263 94.2C335.529 96.7333 330.163 98 324.163 98ZM324.063 87.3C327.729 87.3 330.963 86.5 333.763 84.9C336.629 83.2333 338.863 80.9667 340.463 78.1C342.063 75.2333 342.863 72 342.863 68.4C342.863 64.7333 342.029 61.5 340.363 58.7C338.763 55.8333 336.563 53.6 333.763 52C330.963 50.4 327.763 49.6 324.163 49.6C320.563 49.6 317.329 50.4 314.463 52C311.596 53.6 309.329 55.8333 307.663 58.7C306.063 61.5 305.263 64.7333 305.263 68.4C305.263 72 306.063 75.2333 307.663 78.1C309.329 80.9667 311.596 83.2333 314.463 84.9C317.329 86.5 320.529 87.3 324.063 87.3ZM396.459 98.3C390.192 98.3 384.559 97 379.559 94.4C374.559 91.8 370.625 88.2333 367.759 83.7C364.959 79.1 363.559 73.9 363.559 68.1C363.559 62.1667 364.959 56.9333 367.759 52.4C370.625 47.8667 374.559 44.3333 379.559 41.8C384.559 39.2 390.192 37.9 396.459 37.9C402.059 37.9 407.025 38.7667 411.359 40.5C415.692 42.2333 419.392 45.1333 422.459 49.2L410.059 60.1C408.259 57.7667 406.259 56.0667 404.059 55C401.925 53.8667 399.625 53.3 397.159 53.3C394.425 53.3 391.959 53.9 389.759 55.1C387.625 56.3 385.959 58 384.759 60.2C383.559 62.4 382.959 65.0333 382.959 68.1C382.959 71.1 383.559 73.7333 384.759 76C385.959 78.2 387.625 79.9 389.759 81.1C391.959 82.3 394.425 82.9 397.159 82.9C399.625 82.9 401.925 82.3333 404.059 81.2C406.259 80.0667 408.259 78.3667 410.059 76.1L422.459 86.9C419.392 90.9667 415.692 93.9 411.359 95.7C407.025 97.4333 402.059 98.3 396.459 98.3ZM459.768 98.3C453.435 98.3 447.768 97 442.768 94.4C437.768 91.8 433.835 88.2333 430.968 83.7C428.101 79.1 426.668 73.9 426.668 68.1C426.668 62.2333 428.101 57.0333 430.968 52.5C433.835 47.9667 437.768 44.4 442.768 41.8C447.768 39.2 453.435 37.9 459.768 37.9C466.101 37.9 471.768 39.2 476.768 41.8C481.768 44.4 485.701 47.9667 488.568 52.5C491.435 57.0333 492.868 62.2333 492.868 68.1C492.868 73.9 491.435 79.1 488.568 83.7C485.701 88.2333 481.768 91.8 476.768 94.4C471.768 97 466.101 98.3 459.768 98.3ZM459.768 82.9C462.435 82.9 464.768 82.2667 466.768 81C468.835 79.7333 470.435 78 471.568 75.8C472.768 73.5333 473.368 70.9667 473.368 68.1C473.368 65.1667 472.768 62.6 471.568 60.4C470.435 58.2 468.835 56.4667 466.768 55.2C464.768 53.9333 462.435 53.3 459.768 53.3C457.168 53.3 454.835 53.9333 452.768 55.2C450.701 56.4 449.068 58.1333 447.868 60.4C446.668 62.6667 446.068 65.2333 446.068 68.1C446.068 70.9667 446.668 73.5333 447.868 75.8C449.068 78 450.701 79.7333 452.768 81C454.835 82.2667 457.168 82.9 459.768 82.9ZM503.238 97V39.2H519.138L549.238 74.9H542.038V39.2H560.938V97H545.038L514.738 61.3H522.138V97H503.238ZM574.941 97V39.2H590.841L620.941 74.9H613.741V39.2H632.641V97H616.741L586.441 61.3H593.841V97H574.941ZM664.045 61H690.645V74.4H664.045V61ZM665.645 82.8H695.145V97H646.645V39.2H694.045V53.4H665.645V82.8ZM735.345 98.3C729.079 98.3 723.445 97 718.445 94.4C713.445 91.8 709.512 88.2333 706.645 83.7C703.845 79.1 702.445 73.9 702.445 68.1C702.445 62.1667 703.845 56.9333 706.645 52.4C709.512 47.8667 713.445 44.3333 718.445 41.8C723.445 39.2 729.079 37.9 735.345 37.9C740.945 37.9 745.912 38.7667 750.245 40.5C754.579 42.2333 758.279 45.1333 761.345 49.2L748.945 60.1C747.145 57.7667 745.145 56.0667 742.945 55C740.812 53.8667 738.512 53.3 736.045 53.3C733.312 53.3 730.845 53.9 728.645 55.1C726.512 56.3 724.845 58 723.645 60.2C722.445 62.4 721.845 65.0333 721.845 68.1C721.845 71.1 722.445 73.7333 723.645 76C724.845 78.2 726.512 79.9 728.645 81.1C730.845 82.3 733.312 82.9 736.045 82.9C738.512 82.9 740.812 82.3333 742.945 81.2C745.145 80.0667 747.145 78.3667 748.945 76.1L761.345 86.9C758.279 90.9667 754.579 93.9 750.245 95.7C745.912 97.4333 740.945 98.3 735.345 98.3ZM781.72 97V53.8H764.32V39.2H818.42V53.8H801.02V97H781.72Z" fill="white"/>
<path d="M53.937 57.5432C43.0445 57.5432 33.5302 59.201 25.3937 62.5163C17.3885 65.8316 11.1548 70.5909 6.69292 76.7938C2.23099 83.1038 0 90.4832 0 98.932C0 107.488 2.23099 114.814 6.69292 120.91C11.1548 127.113 17.3885 131.818 25.3937 135.027C33.5302 138.342 43.0445 140 53.937 140C60.3673 140 66.798 139.305 73.2284 137.914C79.6587 136.524 84.8425 134.492 88.7796 131.818L79.5276 112.247C76.5091 114.172 72.9658 115.669 68.8977 116.739C64.9607 117.915 61.2205 118.503 57.6772 118.503C50.7217 118.503 45.3414 116.792 41.5354 113.37C37.7295 110.055 35.8268 105.242 35.8268 98.932C35.8268 92.7291 37.7295 87.8629 41.5354 84.3336C45.3414 80.8043 50.7217 79.0397 57.6772 79.0397C61.2205 79.0397 64.9607 79.5745 68.8977 80.6439C72.9658 81.8204 76.5091 83.3711 79.5276 85.2961L88.7796 65.7247C84.8425 63.2648 79.6587 61.2865 73.2284 59.7891C66.798 58.2917 60.3673 57.5432 53.937 57.5432Z" fill="white"/>
<path d="M96.063 3C106.956 3 116.47 4.65779 124.606 7.97307C132.611 11.2883 138.845 16.0477 143.307 22.2506C147.769 28.5606 150 35.94 150 44.3888C150 52.9447 147.769 60.2705 143.307 66.3665C138.845 72.5694 132.611 77.2752 124.606 80.4836C116.47 83.7989 106.956 85.4567 96.063 85.4567C89.6327 85.4567 83.202 84.7614 76.7716 83.3712C70.3413 81.981 65.1575 79.9488 61.2205 77.2752L70.4724 57.7037C73.4909 59.6288 77.0342 61.1262 81.1024 62.1956C85.0394 63.3721 88.7795 63.9602 92.3228 63.9602C99.2783 63.9602 104.659 62.2491 108.465 58.8267C112.27 55.5114 114.173 50.6988 114.173 44.3888C114.173 38.1859 112.27 33.3197 108.465 29.7904C104.659 26.2611 99.2783 24.4965 92.3228 24.4965C88.7795 24.4965 85.0394 25.0313 81.1024 26.1007C77.0342 27.2772 73.4909 28.8279 70.4724 30.7529L61.2205 11.1815C65.1575 8.72159 70.3413 6.74327 76.7716 5.2459C83.202 3.74852 89.6327 3 96.063 3Z" fill="white"/>
<path d="M57.2834 20.9848C57.2834 13.6583 64.0173 7.49331 72.9468 6.64404C83.4736 5.64333 92.7165 12.348 92.7165 20.9848V122.335C92.7165 129.348 86.5315 135.347 78.0539 136.556C67.213 138.102 57.2834 131.304 57.2834 122.335V20.9848Z" fill="white"/>
</svg>
