<svg width="130" height="119" viewBox="0 0 130 119" fill="none" xmlns="http://www.w3.org/2000/svg">
<path d="M46.7454 47.3771C37.3052 47.3771 29.0595 48.8171 22.0079 51.6967C15.07 54.5764 9.66753 58.7105 5.80053 64.0984C1.93352 69.5794 0 75.9892 0 83.3279C0 90.7597 1.93352 97.123 5.80053 102.418C9.66753 107.806 15.07 111.893 22.0079 114.68C29.0595 117.56 37.3052 119 46.7454 119C52.3184 119 57.8916 118.396 63.4646 117.189C69.0375 115.981 73.5302 114.216 76.9423 111.893L68.9239 94.8935C66.3079 96.5656 63.237 97.8662 59.7113 98.7951C56.2992 99.8171 53.0578 100.328 49.9869 100.328C43.9588 100.328 39.2958 98.8416 35.9974 95.8689C32.6989 92.9892 31.0499 88.8089 31.0499 83.3279C31.0499 77.94 32.6989 73.7131 35.9974 70.6476C39.2958 67.582 43.9588 66.0492 49.9869 66.0492C53.0578 66.0492 56.2992 66.5138 59.7113 67.4427C63.237 68.4646 66.3079 69.8115 68.9239 71.4836L76.9423 54.4836C73.5302 52.3469 69.0375 50.6285 63.4646 49.3279C57.8916 48.0273 52.3184 47.3771 46.7454 47.3771Z" fill="#1D3557"/>
<path d="M83.2546 0C92.6948 0 100.94 1.43998 107.992 4.31967C114.93 7.19936 120.333 11.3334 124.199 16.7213C128.066 22.2023 130 28.6121 130 35.9508C130 43.3826 128.066 49.7459 124.199 55.041C120.333 60.4289 114.93 64.5164 107.992 67.3033C100.94 70.183 92.6948 71.623 83.2546 71.623C77.6816 71.623 72.1083 71.019 66.5354 69.8115C60.9625 68.6039 56.4698 66.8387 53.0577 64.5164L61.0761 47.5164C63.6921 49.1885 66.763 50.4892 70.2887 51.418C73.7008 52.44 76.9422 52.9508 80.0131 52.9508C86.0412 52.9508 90.7042 51.4646 94.0026 48.4918C97.3011 45.6121 98.9501 41.4318 98.9501 35.9508C98.9501 30.5629 97.3011 26.3361 94.0026 23.2705C90.7042 20.2049 86.0412 18.6721 80.0131 18.6721C76.9422 18.6721 73.7008 19.1367 70.2887 20.0656C66.763 21.0875 63.6921 22.4344 61.0761 24.1066L53.0577 7.10656C56.4698 4.96985 60.9625 3.25146 66.5354 1.95082C72.1083 0.650177 77.6816 0 83.2546 0Z" fill="#1D3557"/>
<path d="M49.6456 15.6219C49.6456 9.258 55.4816 3.903 63.2206 3.16532C72.3438 2.29609 80.3543 8.11984 80.3543 15.6219V103.656C80.3543 109.748 74.9939 114.959 67.6467 116.009C58.2512 117.352 49.6456 111.446 49.6456 103.656V15.6219Z" fill="#1D3557"/>
<circle cx="65" cy="60" r="4" fill="white"/>
</svg>
